<?xml version="1.0" encoding="utf-8"?>
<!-- Generator: Adobe Illustrator 26.0.1, SVG Export Plug-In . SVG Version: 6.00 Build 0)  -->
<svg version="1.1" id="Layer_1" xmlns="http://www.w3.org/2000/svg" xmlns:xlink="http://www.w3.org/1999/xlink" x="0px" y="0px"
	 viewBox="0 0 283.9 282.6" style="enable-background:new 0 0 283.9 282.6;" xml:space="preserve">
<style type="text/css">
	.st0{fill:#FFFFFF;stroke:#000000;stroke-miterlimit:10;}
	.st1{fill:none;stroke:#000000;stroke-width:5;stroke-miterlimit:10;}
</style>
<circle class="st0" cx="141.9" cy="141.9" r="141.9"/>
<path d="M219.9,115.8c-3.3-18.3-6.9-36.5-11-54.6c-1.4-6.3-11.1-3.6-9.6,2.7c4.1,18.1,7.8,36.3,11,54.6
	C211.4,124.8,221,122.1,219.9,115.8z"/>
<path d="M105.1,115.8c-3.3-18.3-6.9-36.5-11-54.6c-1.4-6.3-11.1-3.6-9.6,2.7c4.1,18.1,7.8,36.3,11,54.6
	C96.5,124.8,106.2,122.1,105.1,115.8z"/>
<path class="st1" d="M155,166.6l-73.1,0.2c0.2,31.1,33.1,56.6,73.1,56.6c40.1,0,73.1-25.7,73.1-56.9L155,166.6L155,166.6z"/>
</svg>
